HIERARCHY
ROOT hip
{
	OFFSET 0.000000 0.000000 0.000000 
	CHANNELS 6 Xposition Yposition Zposition Xrotation Zrotation Yrotation
	JOINT abdomen
	{
		OFFSET 0.000000 3.402643 0.000000 
		CHANNELS 3 Xrotation Zrotation Yrotation
		JOINT chest
		{
			OFFSET 0.000000 8.438565 -0.680529 
			CHANNELS 3 Xrotation Zrotation Yrotation
			JOINT neck
			{
				OFFSET 0.000000 10.207942 -0.272212 
				CHANNELS 3 Xrotation Zrotation Yrotation
				JOINT head
				{
					OFFSET 0.000000 3.130431 0.000000 
					CHANNELS 3 Xrotation Zrotation Yrotation
					End Site
					{
						OFFSET 0.000000 3.130435 0.000000 
					}
				}
			}
			JOINT lCollar
			{
				OFFSET 3.470700 6.669187 -0.816635 
				CHANNELS 3 Yrotation Zrotation Xrotation
				JOINT lShldr
				{
					OFFSET 3.198488 0.000000 0.000000 
					CHANNELS 3 Zrotation Yrotation Xrotation
					JOINT lForeArm
					{
						OFFSET 10.139888 0.000000 0.000000 
						CHANNELS 3 Yrotation Zrotation Xrotation
						JOINT lHand
						{
							OFFSET 8.370511 0.000000 0.000000 
							CHANNELS 3 Zrotation Yrotation Xrotation
							End Site
							{
								OFFSET 4.083176 0.000000 0.000000 
							}
						}
					}
				}
			}
			JOINT rCollar
			{
				OFFSET -3.470700 6.669187 -0.816635 
				CHANNELS 3 Yrotation Zrotation Xrotation
				JOINT rShldr
				{
					OFFSET -3.198488 0.000000 0.000000 
					CHANNELS 3 Zrotation Yrotation Xrotation
					JOINT rForeArm
					{
						OFFSET -10.139888 0.000000 0.000000 
						CHANNELS 3 Yrotation Zrotation Xrotation
						JOINT rHand
						{
							OFFSET -8.370511 0.000000 0.000000 
							CHANNELS 3 Zrotation Yrotation Xrotation
							End Site
							{
								OFFSET -4.083176 0.000000 0.000000 
							}
						}
					}
				}
			}
		}
	}
	JOINT lThigh
	{
		OFFSET 5.308129 -1.633274 1.361059 
		CHANNELS 3 Xrotation Zrotation Yrotation
		JOINT lShin
		{
			OFFSET -2.041588 -20.007561 0.000000 
			CHANNELS 3 Xrotation Zrotation Yrotation
			JOINT lFoot
			{
				OFFSET 0.000000 -19.190928 -1.224953 
				CHANNELS 3 Xrotation Yrotation Zrotation
				End Site
				{
					OFFSET 0.000000 -2.449906 4.627600 
				}
			}
		}
	}
	JOINT rThigh
	{
		OFFSET -5.308129 -1.633274 1.361059 
		CHANNELS 3 Xrotation Zrotation Yrotation
		JOINT rShin
		{
			OFFSET 2.041588 -20.007561 0.000000 
			CHANNELS 3 Xrotation Zrotation Yrotation
			JOINT rFoot
			{
				OFFSET 0.000000 -19.190928 -1.224953 
				CHANNELS 3 Xrotation Yrotation Zrotation
				End Site
				{
					OFFSET 0.000000 -2.449906 4.627600 
				}
			}
		}
	}
}
MOTION
Frames: 20
Frame Time: 0.058668
0.000000 44.730206 0.000000 4.826930 1.917010 -6.283220 0.213781 3.899133 -1.895003 0.091620 1.671057 -0.812144 15.651000 6.393840 -6.571150 14.845800 7.480310 -2.788920 2.000000 -2.000000 0.020256 -90.254799 2.265700 159.106003 26.904600 -0.336767 0.061925 0.044808 0.020256 -139.598007 -2.000000 2.000000 0.020256 86.826599 1.602520 158.645996 -28.574499 0.334912 0.065394 -0.056635 0.020256 -127.342003 -9.716521 -3.258503 -0.070204 24.917860 2.702336 1.943865 -15.816441 11.440551 4.246351 -14.707284 -2.261670 9.218296 32.593616 -2.846494 -2.349704 -18.581453 -0.972037 -0.696138 
0.027270 44.716312 0.139275 4.954240 2.013940 -6.407260 0.158060 3.891195 -1.793998 0.067740 1.667655 -0.768856 16.182699 5.234420 -5.051710 15.045000 7.196760 -2.035950 2.000000 -2.000000 0.000000 -90.479301 2.333690 158.940002 26.738600 -0.336945 0.061571 0.044703 -0.004758 -138.621002 -2.000000 2.000000 0.000000 86.884903 1.368770 158.363007 -28.955400 0.334475 0.066191 -0.056265 -0.014641 -128.171997 -9.592377 -3.412442 -0.108172 24.770735 2.696997 1.935408 -15.895918 11.591919 4.328450 -14.759655 -2.340260 9.484548 32.653130 -2.852377 -2.379489 -18.760725 -0.914804 -0.676260 
0.037238 44.703197 0.238943 5.248540 2.343660 -6.317750 -0.055020 3.847781 -1.630456 -0.023580 1.649049 -0.698767 16.541401 4.078300 -3.652840 15.156400 6.944530 -1.347280 2.000000 -2.000000 0.000000 -90.577599 2.677210 159.710999 27.431900 -0.336192 0.063044 0.044694 -0.004430 -138.503998 -2.000000 2.000000 0.000000 86.904297 1.095750 158.175995 -29.062799 0.334350 0.066415 -0.055969 -0.012639 -128.893997 -9.712687 -3.775947 -0.204804 24.507950 2.666571 1.913812 -15.807435 11.795086 4.385536 -15.032782 -2.720940 9.400081 32.830990 -2.832689 -2.371441 -18.916983 -0.716359 -0.606965 
0.033381 44.659344 0.355083 5.571930 2.546520 -6.069820 -0.226940 3.941413 -1.587206 -0.097260 1.689177 -0.680231 16.526501 3.505270 -2.568610 15.136800 6.945030 -0.812534 2.000000 -2.000000 0.000000 -90.627197 2.640430 160.727005 27.451500 -0.336171 0.063086 0.044991 -0.010712 -140.750000 -2.000000 2.000000 0.000000 86.923302 0.794178 157.647995 -29.228800 0.334157 0.066761 -0.055966 -0.012612 -128.904007 -10.069752 -3.893409 0.186302 24.673094 2.613270 1.968820 -15.926915 11.350468 4.330740 -15.386749 -2.947596 9.233115 33.225555 -2.812325 -2.389333 -19.245333 -0.558040 -0.572836 
0.048039 44.438915 0.352724 5.707630 2.273840 -5.592900 -0.283359 3.896403 -1.515084 -0.121440 1.669887 -0.649322 16.138901 2.863740 -1.944140 15.014800 6.794670 -0.486369 2.000000 -2.000000 0.000000 -90.663399 0.621468 157.479004 24.961201 -0.338794 0.057755 0.045088 -0.012076 -141.238007 -2.000000 2.000000 0.000000 87.524902 1.418050 153.675003 -29.287399 0.334089 0.066883 -0.055831 -0.011637 -129.255997 -11.712388 -3.262184 1.716110 27.817907 2.560880 2.187851 -17.819914 9.532207 4.076195 -16.142525 -2.671906 8.672918 34.816277 -2.718793 -2.522632 -19.951403 -0.463062 -0.577620 
0.065393 43.653297 0.098830 5.010580 1.031200 -5.261000 -0.766920 3.957352 -1.468475 -0.328680 1.696008 -0.629347 15.257000 2.328530 -1.468800 14.774200 6.608610 -0.209641 2.000000 -2.000000 0.000000 -90.377701 -3.171380 146.393005 21.494400 -0.342056 0.050155 0.045237 -0.013903 -141.891998 -2.000000 2.000000 0.000000 87.371696 3.363970 147.751007 -29.678101 0.333630 0.067695 -0.054919 -0.003155 -132.302994 -15.016748 -0.947977 4.542784 36.130920 2.391126 2.711655 -21.501514 6.586276 3.423074 -17.959246 -1.491188 7.064353 40.314823 -2.419206 -2.882794 -22.167494 0.214634 -0.317977 
-0.097674 42.307484 -0.188762 3.956140 1.324960 -5.415990 -0.426720 4.132975 -0.995982 -0.182880 1.771275 -0.426849 14.082900 2.098990 -1.319770 14.464600 6.404490 -0.048822 2.000000 -2.000000 0.000000 -85.024498 -7.132260 138.136993 21.650600 -0.341919 0.050501 0.046632 -0.025246 -145.973999 -2.000000 2.000000 0.000000 83.763397 5.686000 143.917999 -31.152700 0.331849 0.070729 -0.054399 0.000301 -137.029007 -18.800699 0.749133 7.795319 46.305786 1.922696 3.317899 -24.874887 3.390474 2.288114 -21.840296 -1.381154 6.987186 50.451744 -1.824779 -3.476612 -24.659744 1.074794 0.176827 
-0.402717 40.997162 -0.166047 2.968830 0.429111 -4.010880 -0.117951 4.107796 -1.226959 -0.050550 1.760484 -0.525839 13.934600 2.470520 -0.994207 14.369400 6.541190 0.150229 2.000000 -2.000000 0.000000 -71.643204 -10.094000 130.649994 22.783501 -0.340897 0.053004 0.050251 -0.042081 -152.126999 -2.000000 2.000000 0.000000 73.665901 7.436380 137.358002 -32.676102 0.329928 0.073815 -0.054617 0.008365 -139.910004 -21.159727 3.629345 8.609263 54.129662 1.497197 3.708218 -27.839916 -0.489170 0.341614 -23.675270 -0.667654 5.712525 57.696419 -1.365361 -3.823189 -26.578733 1.787658 0.634867 
-0.607306 41.619213 0.437921 2.412160 -0.380522 -2.164530 -0.458781 4.537806 -1.970175 -0.196620 1.944774 -0.844361 15.430700 2.202200 -0.372902 14.793400 6.588960 0.384685 2.000000 -2.000000 0.000000 -54.234901 -10.203100 122.541000 23.281500 -0.340432 0.054097 0.065132 -0.057693 -157.996002 -2.000000 2.000000 0.000000 58.348000 6.903400 128.819000 -36.240601 0.325116 0.080827 -0.055317 0.017141 -143.054993 -18.575893 4.307783 8.441730 50.531368 1.795467 3.480611 -26.908558 -1.799415 -0.293607 -20.029291 -0.546717 3.235492 53.199486 -1.688035 -3.606209 -25.151011 2.430574 0.835037 
-0.622101 44.871143 1.258269 2.402410 -0.419553 -0.525486 -0.600600 5.185635 -2.504827 -0.257400 2.222415 -1.073497 17.174999 1.929520 0.027934 15.423100 6.602330 0.531550 2.000000 -2.000000 0.000000 -40.367298 -8.958820 117.811996 26.221001 -0.337496 0.060466 0.071021 -0.071110 -163.229996 -2.000000 2.000000 0.000000 43.933102 4.557400 123.473000 -41.904701 0.316601 0.091316 -0.055460 0.018419 -143.514008 -14.748047 3.920659 6.666626 41.069717 2.416420 2.915452 -9.585738 -7.661796 -0.659492 -15.610481 -1.145978 2.937530 43.662914 -2.334117 -3.055984 -10.660567 0.421167 -0.356734 
-0.391714 48.432373 2.028593 2.168040 -0.448897 -0.241679 -1.485961 4.410560 -2.513904 -0.636840 1.890240 -1.077387 19.802299 2.080700 0.806100 16.363800 6.835580 0.861117 2.000000 -2.000000 0.000000 -28.639099 -6.556140 118.112000 33.262100 -0.329167 0.075044 0.080299 -0.097168 -169.929001 -2.000000 2.000000 0.000000 31.166300 3.016340 121.996002 -47.520000 0.307178 0.100834 -0.055907 0.021946 -144.783005 -11.546239 4.212221 1.165265 30.964346 3.103281 2.196411 13.675985 -8.155240 2.672239 -13.189045 -2.887980 3.129483 35.500374 -2.858081 -2.514748 6.387333 -8.049971 0.034879 
-0.153894 50.251823 2.388603 1.621100 0.126902 -1.129200 -2.384759 3.823134 -1.836119 -1.022040 1.638486 -0.786908 21.552401 1.541370 1.252160 17.257000 6.762220 1.083700 2.000000 -2.000000 0.000000 -14.592000 -6.304310 116.208000 40.205502 -0.319264 0.088312 0.078424 -0.094212 -168.679001 -2.000000 2.000000 0.000000 14.735600 4.659930 119.566002 -49.600101 0.303458 0.104119 -0.055874 0.021702 -144.695007 -9.256006 4.447891 -3.254615 28.014570 3.529987 1.892345 7.714031 1.044204 0.684167 -12.589865 -5.019659 5.896328 33.855717 -3.194656 -2.333112 -1.273376 -10.284871 -1.115669 
0.019988 50.095703 2.433246 0.410177 0.576157 -1.431320 -3.672270 3.540733 -1.519541 -1.573830 1.517457 -0.651232 22.030399 1.382840 1.530290 17.425600 6.804740 1.202370 2.000000 -2.000000 0.000000 -0.686419 -7.568170 111.999001 49.316898 -0.303971 0.103731 0.068680 -0.066167 -161.276993 -2.000000 2.000000 0.000000 -2.122470 8.631180 113.563004 -51.074699 0.300749 0.106365 -0.055964 0.022352 -144.929993 -7.554437 6.032171 -3.529187 28.817722 3.719071 1.891976 6.729737 3.855692 0.432261 -12.067025 -7.315204 7.795090 34.407726 -3.457520 -2.296546 -1.722124 -15.220723 -1.257822 
0.132609 47.711563 2.351913 -1.093780 -0.400318 0.007643 -4.052720 2.933840 -1.630870 -1.736880 1.257360 -0.698945 21.812599 1.834320 1.177130 17.320000 6.893520 1.024160 2.000000 -2.000000 0.000000 13.462100 -11.236100 104.126999 59.053200 -0.285155 0.117308 0.047487 -0.030121 -147.742004 -2.000000 2.000000 0.000000 -15.850800 12.084700 105.700996 -57.500500 0.288306 0.115311 -0.055213 0.016135 -142.692993 -7.791457 9.274508 -5.565319 33.259270 3.598316 2.180612 7.508949 -2.921479 1.490597 -10.483487 -7.923057 9.484738 35.475300 -3.497297 -2.337659 0.936751 -11.806990 -0.780168 
0.176238 43.488434 2.047292 -2.890890 -0.780256 1.689790 -4.264961 3.042907 -1.866003 -1.827840 1.304103 -0.799715 21.127399 2.233040 0.744889 17.084700 6.919630 0.834381 2.000000 -2.000000 0.000000 26.175600 -14.969900 96.399002 71.895103 -0.257336 0.129998 0.044654 -0.002598 -137.850006 -2.000000 2.000000 0.000000 -27.281300 14.402400 99.548302 -69.590401 0.262527 0.128140 -0.054399 0.000274 -137.018997 -9.896616 11.176640 -6.941657 44.219501 3.124545 2.825608 -9.845630 -9.106342 -0.124032 -11.319264 -8.139547 8.556023 46.005760 -2.988052 -2.950372 -10.536748 1.315761 -0.872564 
0.051385 40.073689 1.750380 -5.489280 1.088740 1.272350 -4.700360 3.366556 -1.484954 -2.014440 1.442810 -0.636409 19.253201 3.824380 0.952289 16.118401 7.530450 0.978199 2.000000 -2.000000 0.000000 33.209900 -15.448700 95.168602 85.430199 -0.225742 0.136328 0.045009 0.001219 -132.996002 -2.000000 2.000000 0.000000 -31.365601 16.023899 98.533501 -84.580597 0.227761 0.136113 -0.055561 -0.009521 -130.016998 -10.589219 11.345511 -2.538411 54.072784 2.474324 3.354253 -26.154655 -7.121206 -1.917380 -13.835051 -10.042215 7.596064 58.491241 -2.054490 -3.594911 -25.042219 2.252438 -0.128942 
-0.130086 39.762207 1.965484 -6.016640 1.048880 2.614080 -4.414620 3.108338 -2.047346 -1.891980 1.332145 -0.877434 20.726200 3.660840 0.913350 16.570999 7.507120 0.878663 2.000000 -2.000000 0.000000 28.914400 -16.031900 102.556999 80.859901 -0.236567 0.135028 0.044707 0.004894 -135.173996 -2.000000 2.000000 0.000000 -25.530701 18.150000 104.367996 -83.809097 0.229593 0.135927 -0.055528 -0.009250 -130.115005 -10.329998 11.788634 -2.848777 54.189793 2.469385 3.339502 -28.117489 -6.767266 -2.023834 -12.851256 -9.940193 6.478161 59.472958 -2.001653 -3.645835 -26.630789 1.872158 -0.247926 
-0.305879 42.650070 2.432212 -5.000650 0.924204 3.385940 -4.325510 3.402775 -2.123653 -1.853790 1.458332 -0.910137 22.578100 3.397130 1.185510 17.124800 7.565820 0.910263 2.000000 -2.000000 0.000000 12.115800 -15.777300 115.856003 66.406799 -0.269569 0.125340 0.044937 -0.009867 -140.447006 -2.000000 2.000000 0.000000 -8.204150 17.517799 113.689003 -73.770103 0.253061 0.131275 -0.054438 0.006184 -135.641998 -7.351110 9.633410 -6.558406 44.800011 3.102646 2.857641 -14.232401 -4.964912 0.046656 -10.317863 -8.904135 6.808003 51.361355 -2.622246 -3.236499 -15.735061 -0.688395 -1.202545 
-0.475959 46.590672 2.850751 -3.134800 0.273028 4.164730 -4.203290 3.083237 -2.417989 -1.801410 1.321388 -1.036281 23.312700 3.483270 1.165840 17.657499 7.576700 0.938917 2.000000 -2.000000 0.000000 -9.597160 -10.723100 127.894997 55.547401 -0.292194 0.112790 0.048164 -0.033471 -148.962997 -2.000000 2.000000 0.000000 14.568300 14.007300 118.112000 -62.725101 0.277501 0.121521 -0.054419 0.002598 -137.850006 -7.437434 7.684803 -10.782885 36.252266 3.491849 2.368535 7.303463 -2.033803 1.219399 -8.934819 -6.358334 8.381376 41.139942 -3.228904 -2.668648 -4.217480 -13.122145 -1.809082 
-0.613717 48.688675 2.871949 -0.527344 0.087887 4.354660 -4.900209 2.535949 -2.135798 -2.100090 1.086835 -0.915342 22.161501 4.145230 0.433182 17.572800 7.693610 0.651800 2.000000 -2.000000 0.000000 -30.056999 -4.951100 134.460999 47.178200 -0.307778 0.100334 0.070743 -0.070546 -163.005997 -2.000000 2.000000 0.000000 33.299801 7.121190 119.295998 -50.156700 0.302442 0.104975 -0.055907 0.021946 -144.783005 -10.796452 4.796951 -9.078166 34.295002 3.312770 2.313808 4.137336 -2.924332 0.792526 -11.371944 -3.869433 6.757872 37.919647 -3.016907 -2.568820 -3.395825 -7.035098 -1.306733 
